<svg fill="#000" width="800" height="800" viewBox="144 144 512 512" xmlns="http://www.w3.org/2000/svg"><path d="m429.53 280.43 3.0742 48.285 1.9062 29.918 22.031-20.328 18.863-17.406-6.6484 18.07-12.5 33.969 32.324-16.277 42.512-21.406-31.164 31.938-26.18 26.828 58.684-4.0898-22.488 11.863-31.855 16.812 34.723 9.5859 36.824 10.168-62.199 5.3516 13.645 20.152 32.305 47.723-56.809-29.355-22.617-11.688 1.8125 25.391 1.8672 26.223-11.602-22.277-16.051-30.809-10.262 33.188-5.2148 16.863-6.2305-15.758-14.113-35.691-24.734 70.828-6.0508-38.031-5.5156-34.684-20.254 28.691-7.8906 11.18-1.7656-18.625-2.0156-21.137-18.816 9.8359-32.84 17.16 17.191-25.566 19.945-29.668-34.898 7.7656-30.008 6.6758 45.84-29.062-57.449-31.797 39.52.074219 26.555.050781-14.602-22.184-9.4453-14.355 11.301 8.4492 29.641 22.164-7.0625-36.328-11.18-57.473 29.836 44.672 19.375 29.008 6.5312-34.27 9.5234-49.969 16.762 44.133 11.93 31.414 14.34-30.391 21.602-45.805m10.73-56.215-45.258 95.934-34.688-91.336-18.973 99.562-69.301-103.75 24.742 127.22-76.629-57.309 54.297 82.496-95.043-.18359 84.957 47.016-94.504 59.906 109.76-24.414-48.559 72.23 82.672-43.195 5.4258 56.984 30.121-42.668 14.953 93.996 30.77-88.102 21.16 53.52 17.207-55.66 43.414 83.34-6.7695-94.906 106.63 55.105-63.746-94.152 117.24-10.078-113.52-31.348 82.344-43.449-88.805 6.1875 90.848-93.098-118.85 59.84 27.113-73.684-62.41 57.59z"/></svg>